{"accessors":[{"bufferView":0,"byteOffset":0,"componentType":5126,"count":83444,"max":[62.32563781738281,-69.68782806396484,-48.833255767822266],"min":[2.9829158782958984,-172.2277069091797,-252.65357971191406],"type":"VEC3"},{"bufferView":1,"byteOffset":0,"componentType":5121,"count":166994,"normalized":true,"type":"VEC4"},{"bufferView":2,"byteOffset":0,"componentType":5125,"count":500982,"type":"SCALAR"}],"asset":{"generator":"VTK","version":"2.0"},"bufferViews":[{"buffer":0,"byteLength":1001328,"byteOffset":0,"target":34962},{"buffer":1,"byteLength":667976,"byteOffset":0,"target":34962},{"buffer":2,"byteLength":2003928,"byteOffset":0,"target":34963}],"buffers":[{"byteLength":1001328,"uri":"buffer26926117.bin"},{"byteLength":667976,"uri":"buffer28256647.bin"},{"byteLength":2003928,"uri":"buffer28256648.bin"}],"cameras":[{"perspective":{"aspectRatio":1.7333333333333334,"yfov":0.5235987755982988,"zfar":550.7500561508782,"znear":191.56415356893152},"type":"perspective"}],"materials":[{"pbrMetallicRoughness":{"baseColorFactor":[1.0,1.0,1.0,1.0],"metallicFactor":0.0,"roughnessFactor":1.0}}],"meshes":[{"name":"mesh0","primitives":[{"attributes":{"COLOR_0":1,"POSITION":0},"indices":2,"material":0,"mode":4}]}],"nodes":[{"mesh":0,"name":"mesh0"},{"camera":0,"matrix":[0.3824435456691074,0.04451570881883838,-0.922905892301267,-0.0,0.24547889016801955,-0.9678380981948381,0.055041167906177996,0.0,-0.8907732870141082,-0.24760405358344817,-0.38107110070317074,0.0,-278.47245115393537,-213.9486083918763,-282.0537424078913,1.0],"name":"Camera Node"},{"children":[0,1],"name":"Renderer Node"}],"scene":0,"scenes":[{"name":"Layer 0","nodes":[2]}]}