{"accessors":[{"bufferView":0,"byteOffset":0,"componentType":5126,"count":68941,"max":[44.73630905151367,-78.13948059082031,-18.206205368041992],"min":[-18.173053741455078,-191.12515258789063,-288.7529296875],"type":"VEC3"},{"bufferView":1,"byteOffset":0,"componentType":5121,"count":137924,"normalized":true,"type":"VEC4"},{"bufferView":2,"byteOffset":0,"componentType":5125,"count":413772,"type":"SCALAR"}],"asset":{"generator":"VTK","version":"2.0"},"bufferViews":[{"buffer":0,"byteLength":827292,"byteOffset":0,"target":34962},{"buffer":1,"byteLength":551696,"byteOffset":0,"target":34962},{"buffer":2,"byteLength":1655088,"byteOffset":0,"target":34963}],"buffers":[{"byteLength":827292,"uri":"buffer33746930.bin"},{"byteLength":551696,"uri":"buffer35951567.bin"},{"byteLength":1655088,"uri":"buffer35951568.bin"}],"cameras":[{"perspective":{"aspectRatio":1.7333333333333334,"yfov":0.5235987755982988,"zfar":708.5657728749799,"znear":101.0163493397398},"type":"perspective"}],"materials":[{"pbrMetallicRoughness":{"baseColorFactor":[1.0,1.0,1.0,1.0],"metallicFactor":0.0,"roughnessFactor":1.0}}],"meshes":[{"name":"mesh0","primitives":[{"attributes":{"COLOR_0":1,"POSITION":0},"indices":2,"material":0,"mode":4}]}],"nodes":[{"mesh":0,"name":"mesh0"},{"camera":0,"matrix":[0.6993947840602941,-0.696903881198408,-0.15865659897984064,-0.0,0.4800357850346914,0.2935511041462464,0.8266761121144407,-0.0,-0.5295399712159435,-0.6543338059623047,0.539846912799826,-0.0,-167.9412060919719,-366.28091635622144,60.64622999467233,1.0],"name":"Camera Node"},{"children":[0,1],"name":"Renderer Node"}],"scene":0,"scenes":[{"name":"Layer 0","nodes":[2]}]}