{"accessors":[{"bufferView":0,"byteOffset":0,"componentType":5126,"count":215291,"max":[62.32563781738281,-69.68782806396484,-18.206205368041992],"min":[-18.173053741455078,-191.12515258789063,-288.7529296875],"type":"VEC3"},{"bufferView":1,"byteOffset":0,"componentType":5121,"count":430598,"normalized":true,"type":"VEC4"},{"bufferView":2,"byteOffset":0,"componentType":5125,"count":1291794,"type":"SCALAR"}],"asset":{"generator":"VTK","version":"2.0"},"bufferViews":[{"buffer":0,"byteLength":2583492,"byteOffset":0,"target":34962},{"buffer":1,"byteLength":1722392,"byteOffset":0,"target":34962},{"buffer":2,"byteLength":5167176,"byteOffset":0,"target":34963}],"buffers":[{"byteLength":2583492,"uri":"buffer1202709.bin"},{"byteLength":1722392,"uri":"buffer36624054.bin"},{"byteLength":5167176,"uri":"buffer36624055.bin"}],"cameras":[{"perspective":{"aspectRatio":1.7333333333333334,"yfov":0.5235987755982988,"zfar":898.2018609409646,"znear":474.43126882695316},"type":"perspective"}],"materials":[{"pbrMetallicRoughness":{"baseColorFactor":[1.0,1.0,1.0,1.0],"metallicFactor":0.0,"roughnessFactor":1.0}}],"meshes":[{"name":"mesh0","primitives":[{"attributes":{"COLOR_0":1,"POSITION":0},"indices":2,"material":0,"mode":4}]}],"nodes":[{"mesh":0,"name":"mesh0"},{"camera":0,"matrix":[-0.38749142412845683,0.5898546693631667,-0.7084644417734524,-0.0,-0.040549591721001164,0.7568557702282098,0.652322829344124,-0.0,0.920981067578569,0.28149744599681953,-0.26935675424816674,-0.0,616.5269470230622,49.69239903352937,-387.9608320077275,1.0],"name":"Camera Node"},{"children":[0,1],"name":"Renderer Node"}],"scene":0,"scenes":[{"name":"Layer 0","nodes":[2]}]}