{"accessors":[{"bufferView":0,"byteOffset":0,"componentType":5126,"count":19172,"max":[41.77622604370117,-81.54743957519531,-48.833255767822266],"min":[5.878685474395752,-164.29981994628906,-250.06219482421875],"type":"VEC3"},{"bufferView":1,"byteOffset":0,"componentType":5121,"count":38432,"normalized":true,"type":"VEC4"},{"bufferView":2,"byteOffset":0,"componentType":5125,"count":115296,"type":"SCALAR"}],"asset":{"generator":"VTK","version":"2.0"},"bufferViews":[{"buffer":0,"byteLength":230064,"byteOffset":0,"target":34962},{"buffer":1,"byteLength":153728,"byteOffset":0,"target":34962},{"buffer":2,"byteLength":461184,"byteOffset":0,"target":34963}],"buffers":[{"byteLength":230064,"uri":"buffer20977183.bin"},{"byteLength":153728,"uri":"buffer26672448.bin"},{"byteLength":461184,"uri":"buffer26672449.bin"}],"cameras":[{"perspective":{"aspectRatio":1.7333333333333334,"yfov":0.5235987755982988,"zfar":503.1101549561133,"znear":199.1336615263754},"type":"perspective"}],"materials":[{"pbrMetallicRoughness":{"baseColorFactor":[1.0,1.0,1.0,1.0],"metallicFactor":0.0,"roughnessFactor":1.0}}],"meshes":[{"name":"mesh0","primitives":[{"attributes":{"COLOR_0":1,"POSITION":0},"indices":2,"material":0,"mode":4}]}],"nodes":[{"mesh":0,"name":"mesh0"},{"camera":0,"matrix":[-0.7407170429207404,-0.6067072316268091,-0.28852139854521625,0.0,-0.3666972640477797,0.005274596840681572,0.9303253705924832,0.0,-0.5629132960471152,0.794907864925176,-0.22638486568998223,-0.0,-167.8518143830026,137.7970618455161,-229.8622878592941,1.0],"name":"Camera Node"},{"children":[0,1],"name":"Renderer Node"}],"scene":0,"scenes":[{"name":"Layer 0","nodes":[2]}]}